<?xml version="1.0" encoding="UTF-8"?>
<svg version="1.1" xmlns="http://www.w3.org/2000/svg" width="149" height="40">
<path d="M0 0 C4.05914466 0.05162664 6.56640989 0.54877203 9.75 3.25 C11.85629293 6.53787189 11.96685273 9.14218548 11.875 13 C11.85695313 13.98484375 11.83890625 14.9696875 11.8203125 15.984375 C11.79710938 16.73203125 11.77390625 17.4796875 11.75 18.25 C12.48605469 18.21519531 13.22210937 18.18039063 13.98046875 18.14453125 C24.00394791 17.86646908 24.00394791 17.86646908 27.75 21.25 C30.10857464 24.28245311 30.10933916 27.51065814 30.00390625 31.28515625 C29.62642532 34.20627792 28.60858628 35.99314524 26.75 38.25 C22.54605986 40.79566951 18.54548803 40.95219646 13.75 40.25 C10.19727709 38.13348422 8.26264477 36.10036851 6.75 32.25 C6.234375 33.075 5.71875 33.9 5.1875 34.75 C2.75 37.25 2.75 37.25 -0.8125 37.75 C-4.25 37.25 -4.25 37.25 -6.1875 36.1875 C-7.8457539 33.16362524 -7.55144019 30.62613017 -7.25 27.25 C-5.25 24.25 -5.25 24.25 -2.25 23.25 C-2.74371094 22.91226562 -3.23742187 22.57453125 -3.74609375 22.2265625 C-4.38675781 21.78054687 -5.02742187 21.33453125 -5.6875 20.875 C-6.32558594 20.43414063 -6.96367188 19.99328125 -7.62109375 19.5390625 C-9.76040156 17.8460851 -10.18963534 16.73722903 -10.5234375 14.04296875 C-10.80026203 6.94135486 -10.80026203 6.94135486 -7.8125 3.1875 C-6.966875 2.548125 -6.12125 1.90875 -5.25 1.25 C-3.68966377 -0.31033623 -2.16052864 0.04292441 0 0 Z M-5.25 7.25 C-4.92 8.24 -4.59 9.23 -4.25 10.25 C-2.93 8.6 -1.61 6.95 -0.25 5.25 C-2.57357511 5.06509993 -2.57357511 5.06509993 -5.25 7.25 Z M2.75 5.25 C1.41070495 6.53548409 0.07871357 7.82858155 -1.25 9.125 C-1.9925 9.84429688 -2.735 10.56359375 -3.5 11.3046875 C-5.47293325 13.06170957 -5.47293325 13.06170957 -5.25 15.25 C-2.03956118 13.86811547 -0.20063635 12.32578097 2 9.625 C2.52078125 8.99335938 3.0415625 8.36171875 3.578125 7.7109375 C3.96484375 7.22882812 4.3515625 6.74671875 4.75 6.25 C4.09 5.92 3.43 5.59 2.75 5.25 Z M5.75 9.25 C3.44 11.56 1.13 13.87 -1.25 16.25 C1.99565858 16.59055197 1.99565858 16.59055197 4.4375 13.75 C5.200625 12.925 5.96375 12.1 6.75 11.25 C6.42 10.59 6.09 9.93 5.75 9.25 Z M6.75 14.25 C5.265 16.23 5.265 16.23 3.75 18.25 C5.07 18.25 6.39 18.25 7.75 18.25 C7.42 16.93 7.09 15.61 6.75 14.25 Z M11.75 22.25 C12.08 23.57 12.41 24.89 12.75 26.25 C13.74 24.93 14.73 23.61 15.75 22.25 C14.43 22.25 13.11 22.25 11.75 22.25 Z M18.75 23.25 C16.77 25.23 14.79 27.21 12.75 29.25 C13.08 29.91 13.41 30.57 13.75 31.25 C16.06 28.94 18.37 26.63 20.75 24.25 C20.09 23.92 19.43 23.59 18.75 23.25 Z M22.75 25.25 C20.11 27.89 17.47 30.53 14.75 33.25 C15.08 33.91 15.41 34.57 15.75 35.25 C18.39 32.61 21.03 29.97 23.75 27.25 C23.42 26.59 23.09 25.93 22.75 25.25 Z M23.75 30.25 C22.39172029 31.89639965 21.05745749 33.56295807 19.75 35.25 C21.07 34.92 22.39 34.59 23.75 34.25 C24.08 32.93 24.41 31.61 24.75 30.25 C24.42 30.25 24.09 30.25 23.75 30.25 Z " fill="#00C2B8" transform="translate(10.25,-0.25)"/>
<path d="M0 0 C4.33125 -0.12375 4.33125 -0.12375 8.75 -0.25 C9.65331055 -0.28641602 10.55662109 -0.32283203 11.48730469 -0.36035156 C17.41129184 -0.44244526 17.41129184 -0.44244526 20.515625 1.890625 C23.02443275 5.45577285 23.50614346 7.61342336 23 12 C21.52631484 14.27751344 19.88564762 16.02007 18 18 C18.433125 18.55429687 18.86625 19.10859375 19.3125 19.6796875 C19.869375 20.40414063 20.42625 21.12859375 21 21.875 C21.556875 22.59429688 22.11375 23.31359375 22.6875 24.0546875 C24 26 24 26 24 28 C21.7109375 28.27734375 21.7109375 28.27734375 19 28 C17.2265625 26.06640625 17.2265625 26.06640625 15.625 23.5625 C13.3433506 20.2189708 13.3433506 20.2189708 9.99609375 18.1796875 C7.88065119 17.86742461 7.88065119 17.86742461 5 18 C5 20.97 5 23.94 5 27 C3.35 27 1.7 27 0 27 C0 18.09 0 9.18 0 0 Z M5 4 C5 7.3 5 10.6 5 14 C11.80378094 14.36242424 11.80378094 14.36242424 18 12 C18.16681109 9.08347826 18.16681109 9.08347826 18 6 C16.16262173 3.72783152 16.16262173 3.72783152 13.3984375 3.8046875 C12.40070312 3.82789063 11.40296875 3.85109375 10.375 3.875 C9.37210938 3.89304687 8.36921875 3.91109375 7.3359375 3.9296875 C6.17964844 3.96449219 6.17964844 3.96449219 5 4 Z " fill="#00C2B8" transform="translate(47,5)"/>
<path d="M0 0 C0.77085937 -0.01417969 1.54171875 -0.02835938 2.3359375 -0.04296875 C4.9095957 0.21615383 6.45479512 0.79037239 8.625 2.1875 C10.54944725 5.41782218 11.625 7.40573079 11.625 11.1875 C6.015 11.1875 0.405 11.1875 -5.375 11.1875 C-4.385 12.5075 -3.395 13.8275 -2.375 15.1875 C-0.0318787 14.93188677 2.30343403 14.59479228 4.625 14.1875 C4.955 13.5275 5.285 12.8675 5.625 12.1875 C8.1 12.6825 8.1 12.6825 10.625 13.1875 C9.70245619 16.98018011 8.87783446 18.03074264 5.5 20.125 C1.87601575 21.44143687 -0.92187448 21.26926594 -4.57421875 20.11328125 C-7.74483543 18.4832679 -8.91358652 16.35389587 -10.375 13.1875 C-11.05935769 9.08135387 -10.56760796 7.52777407 -8.5 3.875 C-5.699618 0.33334041 -4.33344473 0.03599207 0 0 Z M-1.375 4.1875 C-2.365 5.1775 -3.355 6.1675 -4.375 7.1875 C-1.075 7.1875 2.225 7.1875 5.625 7.1875 C4.635 6.1975 3.645 5.2075 2.625 4.1875 C1.305 4.1875 -0.015 4.1875 -1.375 4.1875 Z " fill="#00C2B8" transform="translate(137.375,11.8125)"/>
<path d="M0 0 C3 1.5625 3 1.5625 5 4 C5.33 6.31 5.66 8.62 6 11 C0.72 11 -4.56 11 -10 11 C-9.67 12.32 -9.34 13.64 -9 15 C-6.03 15 -3.06 15 0 15 C0.33 14.01 0.66 13.02 1 12 C3.475 12.495 3.475 12.495 6 13 C4.37596258 16.53466968 3.13709442 17.91827063 -0.25 19.9375 C-4.76207503 21.21592126 -6.75208426 20.92358449 -11 19 C-13.46810594 16.8483179 -14.74159986 15.31597597 -15.37890625 12.0703125 C-15.60432912 8.21630858 -15.24527155 6.38425876 -13.125 3.0625 C-9.19017726 -0.75659266 -5.26776893 -0.63686326 0 0 Z M-7 4 C-7.99 5.485 -7.99 5.485 -9 7 C-6.03 7 -3.06 7 0 7 C-0.66 6.01 -1.32 5.02 -2 4 C-4.5 3.5 -4.5 3.5 -7 4 Z " fill="#00C2B8" transform="translate(86,12)"/>
<path d="M0 0 C2.32421875 0.12109375 2.32421875 0.12109375 5 1 C6.58203125 3.72265625 6.58203125 3.72265625 7.8125 7.0625 C8.23144531 8.16722656 8.65039062 9.27195312 9.08203125 10.41015625 C9.38496094 11.26480469 9.68789062 12.11945312 10 13 C12.18326108 8.72886302 14.31326082 4.49797113 16 0 C17.65 0 19.3 0 21 0 C18.76686274 7.44379088 15.59727921 14.11976695 12 21 C10.68 21 9.36 21 8 21 C6.65757579 18.06657102 5.32765933 15.12763748 4 12.1875 C3.6184375 11.35412109 3.236875 10.52074219 2.84375 9.66210938 C2.4828125 8.85966797 2.121875 8.05722656 1.75 7.23046875 C1.41484375 6.49207764 1.0796875 5.75368652 0.734375 4.99291992 C0 3 0 3 0 0 Z " fill="#00C2B8" transform="translate(107,12)"/>
<path d="M0 0 C2.375 1.625 2.375 1.625 4 4 C4.58890625 7.53343747 4.42208081 9.27095134 2.625 12.375 C-1.4047876 14.86963042 -5.38066514 14.31735888 -10 14 C-10.61839323 4.99894292 -10.61839323 4.99894292 -8.375 1.375 C-5.27095134 -0.42208081 -3.53343747 -0.58890625 0 0 Z M-7 9 C-7 9.66 -7 10.32 -7 11 C-6.34 10.67 -5.68 10.34 -5 10 C-5.66 9.67 -6.32 9.34 -7 9 Z " fill="#00C2B8" transform="translate(33,3)"/>
<path d="M0 0 C1.32 0 2.64 0 4 0 C4 9.24 4 18.48 4 28 C2.68 28 1.36 28 0 28 C0 18.76 0 9.52 0 0 Z " fill="#00C2B8" transform="translate(94,5)"/>
<path d="M0 0 C1.65 0 3.3 0 5 0 C5 6.93 5 13.86 5 21 C3.35 21 1.7 21 0 21 C0 14.07 0 7.14 0 0 Z " fill="#00C2B7" transform="translate(101,12)"/>
<path d="M0 0 C2.475 0.495 2.475 0.495 5 1 C4.67 1.99 4.34 2.98 4 4 C2.68 3.67 1.36 3.34 0 3 C0 2.01 0 1.02 0 0 Z " fill="#00C2B7" transform="translate(101,5)"/>
</svg>
